<?xml version="1.0" encoding="UTF-8"?>
<svg id="Layer_1" data-name="Layer 1" xmlns="http://www.w3.org/2000/svg" viewBox="0 0 426.24 483.41">
  <defs>
    <style>
      .cls-1 {
        fill: #fff;
      }

      .cls-2 {
        fill: #e44d26;
      }

      .cls-3 {
        fill: #f16529;
      }

      .cls-4 {
        fill: #ebebeb;
      }
    </style>
  </defs>
  <g>
    <polygon class="cls-2" points="212.85 483.41 38.79 435.08 0 0 426.24 0 387.4 435.01 212.85 483.41"/>
    <polygon class="cls-3" points="354.16 407.31 387.35 35.57 213.12 35.57 213.12 446.41 354.16 407.31"/>
  </g>
  <polygon class="cls-1" points="213.28 142.29 341.98 142.29 346.76 88.93 213.28 88.93 213.09 88.93 79.47 88.93 93.87 250.3 213.09 250.3 213.28 250.3 278.8 250.3 272.61 319.5 213.09 335.57 213.09 335.57 213.04 335.59 153.62 319.54 149.82 276.98 96.25 276.98 103.73 360.76 213.03 391.11 213.28 391.04 213.28 391.03 322.48 360.76 337.13 196.94 213.28 196.94 213.09 196.94 142.67 196.94 137.79 142.29 213.09 142.29 213.28 142.29"/>
  <g>
    <polygon class="cls-4" points="213.12 335.56 213.09 335.57 213.09 335.57 213.04 335.59 153.62 319.54 149.82 276.98 96.25 276.98 103.73 360.76 213.03 391.11 213.12 391.08 213.12 335.56"/>
    <polygon class="cls-4" points="213.12 250.3 213.12 196.94 213.09 196.94 142.67 196.94 137.79 142.29 213.09 142.29 213.12 142.29 213.12 88.93 213.09 88.93 79.47 88.93 93.87 250.3 213.09 250.3 213.12 250.3"/>
  </g>
</svg>