<?xml version="1.0" encoding="UTF-8"?>
<svg id="Layer_1" data-name="Layer 1" xmlns="http://www.w3.org/2000/svg" viewBox="0 0 470.67 282.4">
  <defs>
    <style>
      .cls-1 {
        fill: #38bdf8;
        fill-rule: evenodd;
      }
    </style>
  </defs>
  <path class="cls-1" d="M235.34,0c-62.76,0-101.98,31.38-117.67,94.13,23.53-31.38,50.99-43.14,82.37-35.3,17.9,4.47,30.7,17.47,44.86,31.84,23.07,23.42,49.78,50.53,108.11,50.53,62.76,0,101.98-31.38,117.67-94.13-23.53,31.38-50.99,43.14-82.37,35.3-17.9-4.47-30.7-17.47-44.86-31.84C320.37,27.11,293.66,0,235.34,0ZM117.67,141.2c-62.76,0-101.98,31.38-117.67,94.13,23.53-31.38,50.99-43.14,82.37-35.3,17.9,4.48,30.7,17.47,44.86,31.84,23.07,23.42,49.78,50.53,108.11,50.53,62.76,0,101.98-31.38,117.67-94.13-23.53,31.38-50.99,43.14-82.37,35.3-17.9-4.47-30.7-17.47-44.86-31.84-23.07-23.42-49.78-50.53-108.11-50.53Z"/>
</svg>