<?xml version="1.0" encoding="UTF-8"?>
<svg id="Layer_1" xmlns="http://www.w3.org/2000/svg" version="1.1" viewBox="0 0 480 480">
  <!-- Generator: Adobe Illustrator 29.0.1, SVG Export Plug-In . SVG Version: 2.1.0 Build 192)  -->
  <defs>
    <style>
      .st0 {
        fill: #00e7f4;
      }
    </style>
  </defs>
  <path class="st0" d="M240,48c-106,0-192,86-192,192s62,165.2,145.5,186.1c-.9-2.6-1.5-5.6-1.5-9.3v-32.8h-24.1c-13.1,0-24.8-5.6-30.5-16.1-6.3-11.7-7.4-29.5-23-40.4-4.6-3.6-1.1-7.8,4.2-7.2,9.8,2.8,18,9.5,25.7,19.6,7.6,10,11.2,12.3,25.5,12.3s17.3-.4,27.1-1.9c5.2-13.3,14.3-25.6,25.4-31.4-63.9-6.6-94.4-38.4-94.4-81.6s7.9-36.6,21.4-51.7c-4.4-15-10-45.7,1.7-57.4,28.8,0,46.2,18.7,50.3,23.7,14.3-4.9,30.1-7.7,46.6-7.7s32.4,2.8,46.8,7.7c4.1-5,21.5-23.7,50.4-23.7,11.7,11.7,6.1,42.5,1.6,57.5,13.4,15.1,21.2,33.1,21.2,51.6,0,43.2-30.5,74.9-94.3,81.6,17.6,9.2,30.4,34.9,30.4,54.3v43.7c0,1.7-.4,2.9-.6,4.3,74.8-26.2,128.6-97.3,128.6-181S346,48,240,48Z"/>
</svg>